<svg width="46.000000" height="34.000000" viewBox="0 0 46 34" fill="none" xmlns="http://www.w3.org/2000/svg" xmlns:xlink="http://www.w3.org/1999/xlink">
	<desc>
			Created with Pixso.
	</desc>
	<defs/>
	<rect id="Frame 50" rx="9.500000" width="45.000000" height="33.000000" transform="translate(0.500000 0.500000)" fill="#5DB7DE" fill-opacity="1.000000"/>
	<path id="pdf" d="M11.98 12.83Q11.32 12.88 10.78 12.98L10.78 22L12.56 22L12.56 18.86Q12.62 18.88 12.77 18.89Q12.92 18.9 13.08 18.91Q13.23 18.91 13.38 18.91L13.58 18.91Q14.25 18.91 14.88 18.75Q14.88 18.75 14.89 18.75Q15.42 18.6 15.85 18.32Q15.93 18.26 16.01 18.2Q16.11 18.12 16.21 18.04Q16.57 17.7 16.81 17.23Q17.11 16.64 17.11 15.78Q17.11 14.83 16.76 14.24Q16.49 13.77 16.08 13.46Q15.98 13.38 15.87 13.32Q15.87 13.31 15.86 13.31Q15.32 12.98 14.64 12.88Q13.96 12.77 13.28 12.77Q12.63 12.77 11.98 12.83ZM20.13 12.83Q19.78 12.86 19.51 12.9L19.51 22.01Q19.68 22.03 20.02 22.05Q20.36 22.07 20.72 22.09Q21.1 22.11 21.44 22.13Q21.79 22.14 21.99 22.14Q23.31 22.14 24.2 21.73Q25.09 21.33 25.63 20.67Q25.81 20.46 25.95 20.23Q26.25 19.73 26.41 19.15Q26.65 18.29 26.65 17.37Q26.65 16.35 26.4 15.51Q26.17 14.73 25.7 14.15Q25.66 14.1 25.62 14.05Q25.09 13.44 24.23 13.11Q23.37 12.77 22.16 12.77Q21.89 12.77 21.54 12.77Q21.2 12.78 20.84 12.79Q20.47 12.8 20.13 12.83ZM34.62 12.9L29.22 12.9L29.22 22L31 22L31 18.32L34.33 18.32L34.33 16.73L31 16.73L31 14.48L34.62 14.48L34.62 12.9ZM12.93 14.32Q13.17 14.3 13.43 14.3Q13.77 14.3 14.09 14.37Q14.42 14.43 14.67 14.6Q14.74 14.65 14.8 14.71Q14.97 14.85 15.08 15.05Q15.24 15.33 15.24 15.76Q15.24 16.26 15.07 16.57Q14.94 16.82 14.75 16.98Q14.7 17.02 14.64 17.06Q14.36 17.24 14.02 17.3Q13.86 17.33 13.7 17.35Q13.51 17.37 13.32 17.37L13.16 17.37Q13.05 17.37 12.93 17.36Q12.82 17.35 12.71 17.34Q12.61 17.33 12.56 17.31L12.56 14.37Q12.7 14.34 12.93 14.32ZM21.73 14.37Q22.02 14.35 22.3 14.35Q23.05 14.35 23.53 14.63Q23.94 14.86 24.2 15.2Q24.25 15.26 24.29 15.33Q24.3 15.34 24.3 15.35Q24.57 15.77 24.67 16.29Q24.78 16.83 24.78 17.37Q24.78 17.98 24.66 18.56Q24.54 19.14 24.25 19.58Q24.19 19.67 24.12 19.76Q23.85 20.07 23.46 20.28Q22.96 20.55 22.2 20.55Q22.14 20.55 22.01 20.54Q21.88 20.54 21.73 20.53Q21.59 20.53 21.47 20.52Q21.34 20.51 21.29 20.5L21.29 14.4Q21.44 14.38 21.73 14.37Z" fill="#FFFFFF" fill-opacity="1.000000" fill-rule="evenodd"/>
</svg>
