<svg width="30.000000" height="30.000000" viewBox="0 0 30 30" fill="none" xmlns="http://www.w3.org/2000/svg" xmlns:xlink="http://www.w3.org/1999/xlink">
	<desc>
			Created with Pixso.
	</desc>
	<defs>
		<clipPath id="clip1_174">
			<rect id="carbon:location-filled" rx="-0.500000" width="29.000000" height="29.000000" transform="translate(0.500000 0.500000)" fill="white" fill-opacity="0"/>
		</clipPath>
	</defs>
	<rect id="carbon:location-filled" rx="-0.500000" width="29.000000" height="29.000000" transform="translate(0.500000 0.500000)" fill="#FFFFFF" fill-opacity="0"/>
	<g clip-path="url(#clip1_174)">
		<path id="Vector" d="M15 1.87C12.26 1.87 9.64 2.96 7.71 4.89C5.77 6.83 4.69 9.45 4.68 12.18C4.68 14.42 5.41 16.59 6.76 18.37C6.76 18.37 7.04 18.74 7.09 18.79L15 28.12L22.91 18.79C22.95 18.74 23.23 18.37 23.23 18.37L23.23 18.37C24.58 16.59 25.31 14.42 25.31 12.18C25.3 9.45 24.22 6.83 22.28 4.89C20.35 2.96 17.73 1.87 15 1.87ZM15 15.93C14.25 15.93 13.53 15.71 12.91 15.3C12.3 14.89 11.81 14.3 11.53 13.62C11.25 12.93 11.17 12.18 11.32 11.45C11.46 10.72 11.82 10.06 12.34 9.53C12.87 9.01 13.54 8.65 14.26 8.5C14.99 8.36 15.74 8.43 16.43 8.72C17.12 9 17.7 9.48 18.11 10.1C18.53 10.72 18.75 11.44 18.75 12.18C18.74 13.18 18.35 14.13 17.65 14.83C16.94 15.54 15.99 15.93 15 15.93Z" fill="#FFFFFF" fill-opacity="1.000000" fill-rule="nonzero"/>
	</g>
</svg>
