<svg width="30.000000" height="30.000000" viewBox="0 0 30 30" fill="none" xmlns="http://www.w3.org/2000/svg" xmlns:xlink="http://www.w3.org/1999/xlink">
	<desc>
			Created with Pixso.
	</desc>
	<defs>
		<clipPath id="clip1_182">
			<rect id="ic:baseline-phone" rx="-0.500000" width="29.000000" height="29.000000" transform="translate(0.500000 0.500000)" fill="white" fill-opacity="0"/>
		</clipPath>
	</defs>
	<rect id="ic:baseline-phone" rx="-0.500000" width="29.000000" height="29.000000" transform="translate(0.500000 0.500000)" fill="#FFFFFF" fill-opacity="0"/>
	<g clip-path="url(#clip1_182)">
		<path id="Vector" d="M8.27 13.48C10.07 17.02 12.97 19.91 16.51 21.72L19.26 18.97C19.6 18.63 20.1 18.52 20.53 18.67C21.93 19.13 23.45 19.38 25 19.38C25.68 19.38 26.25 19.95 26.25 20.63L26.25 25C26.25 25.68 25.68 26.25 25 26.25C13.26 26.25 3.75 16.73 3.75 5C3.75 4.31 4.31 3.75 5 3.75L9.37 3.75C10.06 3.75 10.62 4.31 10.62 5C10.62 6.56 10.87 8.06 11.33 9.46C11.47 9.9 11.37 10.38 11.02 10.73L8.27 13.48Z" fill="#FFFFFF" fill-opacity="1.000000" fill-rule="nonzero"/>
	</g>
</svg>
