<svg width="30.000000" height="30.000000" viewBox="0 0 30 30" fill="none" xmlns="http://www.w3.org/2000/svg" xmlns:xlink="http://www.w3.org/1999/xlink">
	<desc>
			Created with Pixso.
	</desc>
	<defs>
		<clipPath id="clip1_186">
			<rect id="ic:round-email" rx="-0.500000" width="29.000000" height="29.000000" transform="translate(0.500000 0.500000)" fill="white" fill-opacity="0"/>
		</clipPath>
	</defs>
	<rect id="ic:round-email" rx="-0.500000" width="29.000000" height="29.000000" transform="translate(0.500000 0.500000)" fill="#FFFFFF" fill-opacity="0"/>
	<g clip-path="url(#clip1_186)">
		<path id="Vector" d="M25 5L5 5C3.62 5 2.51 6.12 2.51 7.5L2.5 22.5C2.5 23.87 3.62 25 5 25L25 25C26.37 25 27.5 23.87 27.5 22.5L27.5 7.5C27.5 6.12 26.37 5 25 5ZM24.5 10.31L15.66 15.83C15.26 16.08 14.73 16.08 14.33 15.83L5.5 10.31C5.37 10.24 5.26 10.14 5.17 10.03C5.08 9.91 5.02 9.78 4.99 9.64C4.95 9.51 4.94 9.36 4.97 9.22C4.99 9.08 5.04 8.94 5.11 8.82C5.19 8.7 5.29 8.59 5.41 8.51C5.53 8.43 5.66 8.37 5.8 8.34C5.94 8.31 6.09 8.31 6.23 8.34C6.37 8.37 6.5 8.43 6.62 8.51L15 13.75L23.37 8.51C23.49 8.43 23.62 8.37 23.76 8.34C23.9 8.31 24.05 8.31 24.19 8.34C24.33 8.37 24.46 8.43 24.58 8.51C24.7 8.59 24.8 8.7 24.88 8.82C24.95 8.94 25 9.08 25.02 9.22C25.05 9.36 25.04 9.51 25 9.64C24.97 9.78 24.91 9.91 24.82 10.03C24.73 10.14 24.62 10.24 24.5 10.31Z" fill="#FFFFFF" fill-opacity="1.000000" fill-rule="nonzero"/>
	</g>
</svg>
