<svg width="108.000000" height="30.000000" viewBox="0 0 108 30" fill="none" xmlns="http://www.w3.org/2000/svg" xmlns:xlink="http://www.w3.org/1999/xlink">
	<desc>
			Created with Pixso.
	</desc>
	<defs/>
	<path id="Vector" d="M101.61 30L97.98 15.57C97.54 13.84 97.25 12.11 96.96 10.53L96.82 10.53C96.53 12.26 96.38 13.84 95.95 15.72L92.31 30L86.07 30L94.35 0L99.28 0L108 30L101.61 30ZM6.38 0L10.01 14.42C10.59 16.15 10.74 17.88 11.03 19.47L11.17 19.47C11.46 17.74 11.61 16 12.04 14.27L15.67 0L21.91 0L13.64 30L8.7 30L0 0L6.38 0ZM26.41 0L32.37 0L32.37 30L26.41 30L26.41 0ZM66.04 0L69.09 17.74L71.56 0L79.54 0L82.59 30L76.49 30L75.04 8.36L74.03 15.72L71.56 30L66.91 30L64.01 15.57L62.99 8.94L62.99 8.36L62.85 8.36L61.98 30L55.59 30L58.2 0L66.04 0ZM47.17 0C46.16 0.72 45.43 2.02 44.85 3.31C43.25 6.92 44.99 9.8 46.45 12.4C46.59 12.69 46.88 13.12 47.03 13.55C50.37 19.03 51.53 23.07 49.21 28.84L48.63 29.99L41.37 29.99C42.24 29.27 43.11 28.26 43.54 27.11C45.29 23.22 43.25 19.61 41.37 16C39.19 11.82 36.87 7.5 39.33 1.58C39.48 1 40.06 0 40.06 0L47.17 0L47.17 0Z" fill="#FFFFFF" fill-opacity="1.000000" fill-rule="evenodd"/>
</svg>
