<svg width="24.000000" height="24.000000" viewBox="0 0 24 24" fill="none" xmlns="http://www.w3.org/2000/svg" xmlns:xlink="http://www.w3.org/1999/xlink">
	<desc>
			Created with Pixso.
	</desc>
	<defs>
		<clipPath id="clip1_30">
			<rect id="ic:round-search" rx="-0.500000" width="23.000000" height="23.000000" transform="translate(0.500000 0.500000)" fill="white" fill-opacity="0"/>
		</clipPath>
	</defs>
	<rect id="ic:round-search" rx="-0.500000" width="23.000000" height="23.000000" transform="translate(0.500000 0.500000)" fill="#FFFFFF" fill-opacity="0"/>
	<g clip-path="url(#clip1_30)">
		<path id="Vector" d="M17.63 15.73L16.63 15.73L16.28 15.38C17.07 14.46 17.65 13.38 17.97 12.21C18.3 11.04 18.36 9.82 18.15 8.62C17.56 5.1 14.62 2.29 11.07 1.86C9.82 1.7 8.56 1.83 7.37 2.24C6.18 2.65 5.1 3.32 4.21 4.21C3.32 5.1 2.65 6.18 2.24 7.36C1.83 8.55 1.7 9.82 1.86 11.07C2.29 14.61 5.1 17.55 8.63 18.14C9.82 18.35 11.05 18.29 12.22 17.96C13.39 17.64 14.47 17.06 15.39 16.27L15.73 16.62L15.73 17.62L21.12 23.01C21.64 23.52 22.49 23.52 23.01 23.01C23.52 22.49 23.52 21.64 23.01 21.12L17.63 15.73ZM10.03 15.73C6.88 15.73 4.33 13.18 4.33 10.03C4.33 6.87 6.88 4.33 10.03 4.33C13.19 4.33 15.73 6.87 15.73 10.03C15.73 13.18 13.19 15.73 10.03 15.73Z" fill="#3D348B" fill-opacity="1.000000" fill-rule="nonzero"/>
	</g>
</svg>
